<svg width="32" height="32" viewBox="0 0 32 32" fill="none" xmlns="http://www.w3.org/2000/svg">
<path d="M17.6795 4.79964L6.73285 16.3863C6.31952 16.8263 5.91952 17.693 5.83952 18.293L5.34618 22.613C5.17285 24.173 6.29285 25.2396 7.83952 24.973L12.1329 24.2396C12.7329 24.133 13.5728 23.693 13.9862 23.2396L24.9328 11.653C26.8262 9.65297 27.6795 7.37297 24.7328 4.5863C21.7995 1.8263 19.5728 2.79964 17.6795 4.79964Z" fill="#EDE9F3" stroke="#482084" stroke-width="1.6" stroke-miterlimit="10" stroke-linecap="round" stroke-linejoin="round"/>
<path d="M15.8535 6.73242C16.4268 10.4124 19.4135 13.2258 23.1202 13.5991L15.8535 6.73242Z" fill="#EDE9F3"/>
<path d="M15.8535 6.73242C16.4268 10.4124 19.4135 13.2258 23.1202 13.5991" stroke="#482084" stroke-width="1.6" stroke-miterlimit="10" stroke-linecap="round" stroke-linejoin="round"/>
<path d="M4 29.334H28" stroke="#482084" stroke-width="1.6" stroke-miterlimit="10" stroke-linecap="round" stroke-linejoin="round"/>
</svg>
