<svg width="32" height="32" viewBox="0 0 32 32" fill="none" xmlns="http://www.w3.org/2000/svg">
<path d="M16 32C24.8366 32 32 24.8366 32 16C32 7.16344 24.8366 0 16 0C7.16344 0 0 7.16344 0 16C0 24.8366 7.16344 32 16 32Z" fill="#C7C5CE" fill-opacity="0.77"/>
<path d="M17.5237 25V17.2555H20.0392L20.4168 14.2235H17.5237V12.294C17.5237 11.4173 17.7573 10.8228 18.9671 10.8228H20.5V8.11955C20.2344 8.08302 19.3191 8 18.2534 8C16.0292 8 14.5058 9.40809 14.5058 11.9951V14.2268H12V17.2588H14.5058V25H17.5237Z" fill="#361863"/>
</svg>
