<svg width="40" height="40" viewBox="0 0 40 40" fill="none" xmlns="http://www.w3.org/2000/svg">
<rect width="40" height="40" rx="20" fill="#F3F3F5"/>
<path d="M16.5 17C18.433 17 20 15.433 20 13.5C20 11.567 18.433 10 16.5 10C14.567 10 13 11.567 13 13.5C13 15.433 14.567 17 16.5 17Z" stroke="#241042" stroke-width="1.5" stroke-linecap="round" stroke-linejoin="round"/>
<path d="M10.5001 25.5C10.5001 22.1829 13.5529 19.5 17.3115 19.5C18.0727 19.5 18.8102 19.6114 19.5001 19.8171" stroke="#241042" stroke-width="1.5" stroke-linecap="round" stroke-linejoin="round"/>
<path d="M18.2501 25.0499V23.9499C18.2501 23.2999 18.7813 22.7624 19.4376 22.7624C20.5688 22.7624 21.0313 21.9624 20.4626 20.9811C20.1376 20.4186 20.3313 19.6874 20.9001 19.3624L21.9813 18.7436C22.4751 18.4499 23.1126 18.6249 23.4063 19.1186L23.4751 19.2374C24.0376 20.2186 24.9626 20.2186 25.5313 19.2374L25.6001 19.1186C25.8938 18.6249 26.5313 18.4499 27.0251 18.7436L28.1063 19.3624C28.6751 19.6874 28.8688 20.4186 28.5438 20.9811C27.9751 21.9624 28.4376 22.7624 29.5688 22.7624C30.2188 22.7624 30.7563 23.2936 30.7563 23.9499V25.0499C30.7563 25.6999 30.2251 26.2374 29.5688 26.2374C28.4376 26.2374 27.9751 27.0374 28.5438 28.0186C28.8688 28.5874 28.6751 29.3124 28.1063 29.6374L27.0251 30.2561C26.5313 30.5499 25.8938 30.3749 25.6001 29.8812L25.5313 29.7624C24.9688 28.7811 24.0438 28.7811 23.4751 29.7624L23.4063 29.8812C23.1126 30.3749 22.4751 30.5499 21.9813 30.2561L20.9001 29.6374C20.3313 29.3124 20.1376 28.5811 20.4626 28.0186C21.0313 27.0374 20.5688 26.2374 19.4376 26.2374C18.7813 26.2374 18.2501 25.6999 18.2501 25.0499Z" fill="white" stroke="#241042" stroke-width="1.40625" stroke-miterlimit="10" stroke-linecap="round" stroke-linejoin="round"/>
<path d="M24.5 26.375C25.5355 26.375 26.375 25.5355 26.375 24.5C26.375 23.4645 25.5355 22.625 24.5 22.625C23.4645 22.625 22.625 23.4645 22.625 24.5C22.625 25.5355 23.4645 26.375 24.5 26.375Z" fill="white" stroke="#241042" stroke-width="1.40625" stroke-miterlimit="10" stroke-linecap="round" stroke-linejoin="round"/>
</svg>
