<svg width="40" height="40" viewBox="0 0 40 40" fill="none" xmlns="http://www.w3.org/2000/svg">
<rect width="40" height="40" rx="20" fill="white"/>
<circle cx="20" cy="21" r="11" fill="#EDE9F3"/>
<path d="M20.6387 12.4666H19.4054C18.7271 12.4666 18.1721 11.9116 18.1721 11.2333V9.99994C18.1721 9.32161 18.7271 8.7666 19.4054 8.7666H20.6387C21.3171 8.7666 21.8721 9.32161 21.8721 9.99994V11.2333C21.8721 11.9116 21.3171 12.4666 20.6387 12.4666Z" stroke="#482084" stroke-width="1.5" stroke-linecap="round" stroke-linejoin="round"/>
<path d="M9.23133 23.5731H10.4647C11.143 23.5731 11.698 23.0181 11.698 22.3398V21.1065C11.698 20.4281 11.143 19.873 10.4647 19.873H9.23133C8.55299 19.873 7.99799 20.4281 7.99799 21.1065V22.3398C7.99799 23.0181 8.55299 23.5731 9.23133 23.5731Z" stroke="#482084" stroke-width="1.5" stroke-linecap="round" stroke-linejoin="round"/>
<path d="M30.766 23.5731H29.5326C28.8543 23.5731 28.2993 23.0181 28.2993 22.3398V21.1065C28.2993 20.4281 28.8543 19.873 29.5326 19.873H30.766C31.4443 19.873 31.9993 20.4281 31.9993 21.1065V22.3398C31.9993 23.0181 31.4443 23.5731 30.766 23.5731Z" stroke="#482084" stroke-width="1.5" stroke-linecap="round" stroke-linejoin="round"/>
<path d="M17.6002 9.9668C12.8729 10.5345 9.20032 14.609 9.20032 19.5667" stroke="#482084" stroke-width="1.5" stroke-linecap="round" stroke-linejoin="round"/>
<path d="M30.8 19.5667C30.8 14.6217 27.1305 10.5597 22.4001 9.9668" stroke="#482084" stroke-width="1.5" stroke-linecap="round" stroke-linejoin="round"/>
<path d="M19.9999 20.66C21.2867 20.66 22.3299 19.6168 22.3299 18.33C22.3299 17.0431 21.2867 16 19.9999 16C18.7131 16 17.6699 17.0431 17.6699 18.33C17.6699 19.6168 18.7131 20.66 19.9999 20.66Z" stroke="#482084" stroke-width="1.5" stroke-linecap="round" stroke-linejoin="round"/>
<path d="M24 26.3195C24 24.5195 22.21 23.0596 20 23.0596C17.79 23.0596 16 24.5195 16 26.3195" stroke="#482084" stroke-width="1.5" stroke-linecap="round" stroke-linejoin="round"/>
</svg>
