<svg width="32" height="32" viewBox="0 0 32 32" fill="none" xmlns="http://www.w3.org/2000/svg">
<path d="M23.9735 14.3867V19.72C23.9735 20.0667 23.9601 20.4 23.9201 20.72C23.6135 24.32 21.4935 26.1066 17.5868 26.1066H17.0535C16.7202 26.1066 16.4001 26.2667 16.2001 26.5333L14.6002 28.6667C13.8935 29.6133 12.7468 29.6133 12.0401 28.6667L10.4401 26.5333C10.2668 26.3067 9.88015 26.1066 9.58681 26.1066H9.05349C4.80015 26.1066 2.66681 25.0533 2.66681 19.72V14.3867C2.66681 10.48 4.46682 8.36001 8.05349 8.05334C8.37349 8.01334 8.70682 8 9.05349 8H17.5868C21.8401 8 23.9735 10.1333 23.9735 14.3867Z" fill="#EDE9F3" stroke="#482084" stroke-width="1.6" stroke-miterlimit="10" stroke-linecap="round" stroke-linejoin="round"/>
<path d="M29.3064 9.05269V14.386C29.3064 18.306 27.5064 20.4127 23.9198 20.7194C23.9598 20.3994 23.9731 20.066 23.9731 19.7194V14.386C23.9731 10.1327 21.8398 7.99935 17.5864 7.99935H9.0531C8.70643 7.99935 8.3731 8.01269 8.0531 8.05269C8.35977 4.46603 10.4798 2.66602 14.3864 2.66602H22.9198C27.1731 2.66602 29.3064 4.79936 29.3064 9.05269Z" fill="#EDE9F3" stroke="#482084" stroke-width="1.6" stroke-miterlimit="10" stroke-linecap="round" stroke-linejoin="round"/>
<path fill-rule="evenodd" clip-rule="evenodd" d="M17.9943 17.6667H18.0063H17.9943Z" fill="#EDE9F3"/>
<path d="M17.9943 17.6667H18.0063" stroke="#482084" stroke-width="1.6" stroke-linecap="round" stroke-linejoin="round"/>
<path fill-rule="evenodd" clip-rule="evenodd" d="M13.327 17.6667H13.339H13.327Z" fill="#EDE9F3"/>
<path d="M13.327 17.6667H13.339" stroke="#482084" stroke-width="1.6" stroke-linecap="round" stroke-linejoin="round"/>
<path fill-rule="evenodd" clip-rule="evenodd" d="M8.66067 17.6667H8.67267H8.66067Z" fill="#EDE9F3"/>
<path d="M8.66067 17.6667H8.67267" stroke="#482084" stroke-width="1.6" stroke-linecap="round" stroke-linejoin="round"/>
</svg>
