<svg width="28" height="28" viewBox="0 0 28 28" fill="none" xmlns="http://www.w3.org/2000/svg">
<path d="M10.0005 22.0008H9.42904C4.85761 22.0008 2.5719 20.858 2.5719 15.1437V9.42941C2.5719 4.85798 4.85761 2.57227 9.42904 2.57227H18.5719C23.1433 2.57227 25.429 4.85798 25.429 9.42941V15.1437C25.429 19.7151 23.1433 22.0008 18.5719 22.0008H18.0005C17.6462 22.0008 17.3033 22.1723 17.0862 22.458L15.3719 24.7437C14.6176 25.7494 13.3833 25.7494 12.629 24.7437L10.9148 22.458C10.7319 22.2066 10.309 22.0008 10.0005 22.0008Z" fill="white" fill-opacity="0.22" stroke="white" stroke-width="1.71429" stroke-miterlimit="10" stroke-linecap="round" stroke-linejoin="round"/>
<path d="M8.28613 9.42871H19.7147" stroke="white" stroke-width="1.71429" stroke-linecap="round" stroke-linejoin="round"/>
<path d="M8.28613 15.1436H15.1433" stroke="white" stroke-width="1.71429" stroke-linecap="round" stroke-linejoin="round"/>
<circle cx="24.2861" cy="4.85728" r="2.57143" fill="#FF8100" stroke="white" stroke-width="1.71429"/>
</svg>
