<svg width="40" height="40" viewBox="0 0 40 40" fill="none" xmlns="http://www.w3.org/2000/svg">
<rect width="40" height="40" rx="20" fill="white"/>
<path d="M16.5 17C18.433 17 20 15.433 20 13.5C20 11.567 18.433 10 16.5 10C14.567 10 13 11.567 13 13.5C13 15.433 14.567 17 16.5 17Z" stroke="#3A86FF" stroke-width="1.5" stroke-linecap="round" stroke-linejoin="round"/>
<path d="M10.5 25.5C10.5 22.1829 13.5529 19.5 17.3114 19.5C18.0727 19.5 18.8101 19.6114 19.5 19.8171" stroke="#3A86FF" stroke-width="1.5" stroke-linecap="round" stroke-linejoin="round"/>
<path d="M18.25 25.0499V23.9499C18.25 23.2999 18.7813 22.7624 19.4375 22.7624C20.5687 22.7624 21.0312 21.9624 20.4625 20.9811C20.1375 20.4186 20.3312 19.6874 20.9 19.3624L21.9812 18.7436C22.475 18.4499 23.1125 18.6249 23.4062 19.1186L23.475 19.2374C24.0375 20.2186 24.9625 20.2186 25.5312 19.2374L25.6 19.1186C25.8938 18.6249 26.5313 18.4499 27.025 18.7436L28.1063 19.3624C28.675 19.6874 28.8687 20.4186 28.5437 20.9811C27.975 21.9624 28.4375 22.7624 29.5688 22.7624C30.2188 22.7624 30.7563 23.2936 30.7563 23.9499V25.0499C30.7563 25.6999 30.225 26.2374 29.5688 26.2374C28.4375 26.2374 27.975 27.0374 28.5437 28.0186C28.8687 28.5874 28.675 29.3124 28.1063 29.6374L27.025 30.2561C26.5313 30.5499 25.8938 30.3749 25.6 29.8812L25.5312 29.7624C24.9688 28.7811 24.0437 28.7811 23.475 29.7624L23.4062 29.8812C23.1125 30.3749 22.475 30.5499 21.9812 30.2561L20.9 29.6374C20.3312 29.3124 20.1375 28.5811 20.4625 28.0186C21.0312 27.0374 20.5687 26.2374 19.4375 26.2374C18.7813 26.2374 18.25 25.6999 18.25 25.0499Z" fill="#EBF3FF" stroke="#3A86FF" stroke-width="1.40625" stroke-miterlimit="10" stroke-linecap="round" stroke-linejoin="round"/>
<path d="M24.5 26.375C25.5355 26.375 26.375 25.5355 26.375 24.5C26.375 23.4645 25.5355 22.625 24.5 22.625C23.4645 22.625 22.625 23.4645 22.625 24.5C22.625 25.5355 23.4645 26.375 24.5 26.375Z" fill="white" stroke="#3A86FF" stroke-width="1.40625" stroke-miterlimit="10" stroke-linecap="round" stroke-linejoin="round"/>
</svg>
