<svg width="32" height="32" viewBox="0 0 32 32" fill="none" xmlns="http://www.w3.org/2000/svg">
<rect width="32" height="32" rx="16" fill="#C7C5CE" fill-opacity="0.77"/>
<path fill-rule="evenodd" clip-rule="evenodd" d="M8.34814 19.9256V13.4071C8.34814 11.157 10.2515 9.33301 12.5994 9.33301H19.4013C21.7491 9.33301 23.6525 11.157 23.6525 13.4071V19.9256C23.6525 22.1756 21.7491 23.9997 19.4013 23.9997H12.5994C10.2515 23.9997 8.34814 22.1756 8.34814 19.9256ZM11.9832 16.6665C11.9832 14.5016 13.8068 12.791 16.0005 12.791C18.1941 12.791 20.0177 14.5016 20.0177 16.6665C20.0177 18.8313 18.1941 20.542 16.0005 20.542C13.8068 20.542 11.9832 18.8313 11.9832 16.6665ZM16.0005 14.0235C14.4376 14.0235 13.2158 15.2313 13.2158 16.6665C13.2158 18.1017 14.4376 19.3095 16.0005 19.3095C17.5634 19.3095 18.7852 18.1017 18.7852 16.6665C18.7852 15.2313 17.5634 14.0235 16.0005 14.0235ZM21.1432 12.5969C21.3709 12.3439 21.3504 11.9542 21.0974 11.7265C20.8444 11.4988 20.4548 11.5193 20.2271 11.7723L20.2185 11.7817C19.9908 12.0347 20.0113 12.4244 20.2643 12.6521C20.5173 12.8798 20.9069 12.8593 21.1346 12.6063L21.1432 12.5969Z" fill="#361863"/>
</svg>
