<svg width="32" height="32" viewBox="0 0 32 32" fill="none" xmlns="http://www.w3.org/2000/svg">
<path d="M25.3336 21.3333V8.66667C25.3336 7.2 24.1336 6 22.667 6H15.3336" stroke="#482084" stroke-width="1.6" stroke-linecap="round" stroke-linejoin="round"/>
<path d="M18.6664 2.66699L14.6664 6.00033L18.6664 9.33366" stroke="#482084" stroke-width="1.6" stroke-linecap="round" stroke-linejoin="round"/>
<path d="M25.3336 29.333C27.5428 29.333 29.3336 27.5421 29.3336 25.333C29.3336 23.1239 27.5428 21.333 25.3336 21.333C23.1245 21.333 21.3336 23.1239 21.3336 25.333C21.3336 27.5421 23.1245 29.333 25.3336 29.333Z" fill="#EDE9F3" stroke="#482084" stroke-width="1.6" stroke-linecap="round" stroke-linejoin="round"/>
<path d="M6.66638 10.667V23.3337C6.66638 24.8003 7.86638 26.0003 9.33305 26.0003H16.6664" stroke="#482084" stroke-width="1.6" stroke-linecap="round" stroke-linejoin="round"/>
<path d="M13.3336 29.3337L17.3336 26.0003L13.3336 22.667" stroke="#482084" stroke-width="1.6" stroke-linecap="round" stroke-linejoin="round"/>
<path d="M6.66638 10.667C8.87552 10.667 10.6664 8.87613 10.6664 6.66699C10.6664 4.45785 8.87552 2.66699 6.66638 2.66699C4.45724 2.66699 2.66638 4.45785 2.66638 6.66699C2.66638 8.87613 4.45724 10.667 6.66638 10.667Z" fill="#EDE9F3" stroke="#482084" stroke-width="1.6" stroke-linecap="round" stroke-linejoin="round"/>
</svg>
