<svg width="32" height="32" viewBox="0 0 32 32" fill="none" xmlns="http://www.w3.org/2000/svg">
<rect width="32" height="32" rx="16" fill="#C7C5CE" fill-opacity="0.77"/>
<path d="M24.2987 17.0147V22.667H20.8791V17.3935C20.8791 16.0694 20.3854 15.1651 19.1473 15.1651C18.2024 15.1651 17.6411 15.7739 17.3932 16.3634C17.3032 16.574 17.28 16.8666 17.28 17.162V22.6668H13.8602C13.8602 22.6668 13.9061 13.7351 13.8602 12.8106H17.2802V14.2073C17.2734 14.2183 17.2637 14.2291 17.2576 14.2396H17.2802V14.2073C17.7347 13.5372 18.5451 12.5792 20.3622 12.5792C22.612 12.5792 24.2987 13.9878 24.2987 17.0147ZM10.2827 8.05957C9.11297 8.05957 8.34766 8.79544 8.34766 9.76227C8.34766 10.7086 9.09078 11.4657 10.2379 11.4657H10.2601C11.4528 11.4657 12.1944 10.7086 12.1944 9.76227C12.1717 8.79544 11.4528 8.05957 10.2827 8.05957ZM8.55091 22.667H11.9695V12.8106H8.55091V22.667Z" fill="#361863"/>
</svg>
