<svg width="33" height="33" viewBox="0 0 33 33" fill="none" xmlns="http://www.w3.org/2000/svg">
<rect x="0.5" y="0.753418" width="32" height="32" rx="16" fill="#C7C5CE" fill-opacity="0.77"/>
<path d="M25.1659 13.1754C24.9511 12.4445 24.3563 11.8712 23.5902 11.6685C22.1795 11.3071 16.5087 11.3071 16.5087 11.3071C16.5087 11.3071 10.8485 11.2985 9.42318 11.6685C8.66103 11.8717 8.06342 12.4445 7.85083 13.1754C7.5834 14.5609 7.45053 15.9631 7.45675 17.3719C7.45392 18.7714 7.58623 20.1715 7.85083 21.5483C8.06342 22.2793 8.66103 22.8525 9.42318 23.0584C10.8338 23.4198 16.5087 23.4198 16.5087 23.4198C16.5087 23.4198 22.1654 23.4198 23.5902 23.0584C24.3563 22.8525 24.9511 22.2798 25.1659 21.5483C25.4254 20.1715 25.5521 18.7714 25.543 17.3719C25.5521 15.9631 25.4283 14.5609 25.1659 13.1754ZM14.6971 19.9656V14.7667L19.4176 17.3719L14.6971 19.9656Z" fill="#361863"/>
</svg>
